Coordinates
version=1
nRows=9
nColumns=24
inDegrees=yes

Units are S.I. units (second, meters, Newtons, ...)
Angles are in degrees.

endheader
time	pelvis_tilt	pelvis_list	pelvis_rotation	pelvis_tx	pelvis_ty	pelvis_tz	hip_flexion_r	hip_adduction_r	hip_rotation_r	knee_angle_r	ankle_angle_r	subtalar_angle_r	mtp_angle_r	hip_flexion_l	hip_adduction_l	hip_rotation_l	knee_angle_l	ankle_angle_l	subtalar_angle_l	mtp_angle_l	lumbar_extension	lumbar_bending	lumbar_rotation
      1.49516667	      5.91697815	      4.65108903	     -4.33426522	      0.42794922	      0.92019980	      0.28987017	      6.29767212	    -10.02181684	     -9.41842423	    -62.68776821	      8.98238857	      7.36766758	      7.70428019	      1.57926875	      9.07782701	     -5.61157464	    -15.90418082	      9.50239919	     -9.34699784	      3.80321612	    -11.19198111	     -9.47726270	      4.20043549
      1.49933333	      5.94615626	      4.49975601	     -4.05233304	      0.43272976	      0.92122191	      0.28940284	      6.82565936	     -9.78844709	     -9.59749820	    -62.22036775	      9.52091673	      7.02156124	      5.07973918	      0.92333853	      8.98375396	     -5.19187389	    -15.35244761	      9.36577877	     -9.49538332	      4.17992321	    -11.27806521	     -9.25408830	      3.87523878
      1.50350000	      5.98392539	      4.30260088	     -3.73797653	      0.43749758	      0.92223926	      0.28891074	      7.30594464	     -9.50642431	     -9.81933294	    -61.66384219	      9.94182846	      6.65676748	      5.05252795	      0.30786253	      8.80434325	     -4.91378619	    -14.91983450	      9.38445065	     -9.30427002	      4.18888873	    -11.41034157	     -8.95607849	      3.55782724
      1.50766667	      6.04558608	      4.11312142	     -3.42913077	      0.44228372	      0.92326296	      0.28843995	      7.74807099	     -9.23634109	    -10.03754108	    -61.05845371	     10.26071410	      6.26145769	      4.98976616	     -0.36112849	      8.63765263	     -4.57891573	    -14.42309578	      9.37834850	     -9.22085010	      4.19848881	    -11.52683056	     -8.70784264	      3.10890088
      1.51183333	      6.08854279	      3.92864700	     -3.10258298	      0.44700032	      0.92420407	      0.28793576	      8.21009173	     -8.97761983	    -10.27361453	    -60.43152174	     10.59344295	      5.86719980	      4.91766088	     -0.98388542	      8.46937794	     -4.22648831	    -13.96425651	      9.34734245	     -9.16458807	      4.20693842	    -11.65602698	     -8.42162430	      2.73543228
      1.51600000	      6.13716561	      3.74530909	     -2.77244286	      0.45172015	      0.92511824	      0.28743123	      8.65111822	     -8.72467033	    -10.51636463	    -59.75629962	     10.87012743	      5.46926676	      4.83048354	     -1.61457690	      8.29666526	     -3.86670817	    -13.49684433	      9.32387081	     -9.11842494	      4.21447001	    -11.77158934	     -8.15539238	      2.34187366
      1.52016667	      6.18849072	      3.56578793	     -2.43170467	      0.45642647	      0.92599214	      0.28692337	      9.07655783	     -8.48021076	    -10.77149215	    -59.04169246	     11.11916449	      5.06377511	      4.72006220	     -2.24098972	      8.11917003	     -3.50216565	    -13.03670680	      9.29329025	     -9.09064833	      4.22211602	    -11.88634401	     -7.89677644	      1.91940900
      1.52433333	      6.24126317	      3.38707261	     -2.08489582	      0.46110556	      0.92682428	      0.28640884	      9.49182514	     -8.24082964	    -11.03377818	    -58.29182611	     11.33303888	      4.64563942	      4.59111902	     -2.85969252	      7.93565768	     -3.13115251	    -12.58552029	      9.26199502	     -9.06806335	      4.23006052	    -12.00634377	     -7.62954681	      1.50132419
      1.52850000	      6.29326039	      3.22554689	     -1.73762207	      0.46576207	      0.92759611	      0.28588445	      9.90576310	     -8.03027047	    -11.30317307	    -57.52151915	     11.54273250	      4.22710124	      4.39737464	     -3.47190133	      7.76513060	     -2.75539816	    -12.13390169	      9.20007248	     -9.06429937	      4.24067468	    -12.13665500	     -7.36316964	      1.03541495
